<?xml version="1.0" standalone="no"?><svg xmlns="http://www.w3.org/2000/svg" viewBox="0 0 1440 320"><path fill="#97d700" fill-opacity="1" d="M0,64L11.4,74.7C22.9,85,46,107,69,96C91.4,85,114,43,137,42.7C160,43,183,85,206,117.3C228.6,149,251,171,274,170.7C297.1,171,320,149,343,144C365.7,139,389,149,411,154.7C434.3,160,457,160,480,138.7C502.9,117,526,75,549,90.7C571.4,107,594,181,617,192C640,203,663,149,686,133.3C708.6,117,731,139,754,133.3C777.1,128,800,96,823,74.7C845.7,53,869,43,891,42.7C914.3,43,937,53,960,58.7C982.9,64,1006,64,1029,74.7C1051.4,85,1074,107,1097,138.7C1120,171,1143,213,1166,213.3C1188.6,213,1211,171,1234,144C1257.1,117,1280,107,1303,128C1325.7,149,1349,203,1371,218.7C1394.3,235,1417,213,1429,202.7L1440,192L1440,320L1428.6,320C1417.1,320,1394,320,1371,320C1348.6,320,1326,320,1303,320C1280,320,1257,320,1234,320C1211.4,320,1189,320,1166,320C1142.9,320,1120,320,1097,320C1074.3,320,1051,320,1029,320C1005.7,320,983,320,960,320C937.1,320,914,320,891,320C868.6,320,846,320,823,320C800,320,777,320,754,320C731.4,320,709,320,686,320C662.9,320,640,320,617,320C594.3,320,571,320,549,320C525.7,320,503,320,480,320C457.1,320,434,320,411,320C388.6,320,366,320,343,320C320,320,297,320,274,320C251.4,320,229,320,206,320C182.9,320,160,320,137,320C114.3,320,91,320,69,320C45.7,320,23,320,11,320L0,320Z"></path></svg>